solid
 facet normal  0.000000e+00  1.000000e+00 -0.000000e+00
   outer loop
     vertex  4.545000e+00  3.350000e+00  4.050000e+00
     vertex -4.545000e+00  3.350000e+00  1.000000e-01
     vertex -4.545000e+00  3.350000e+00  4.050000e+00
   endloop
 endfacet
 facet normal  0.000000e+00  1.000000e+00 -0.000000e+00
   outer loop
     vertex  4.545000e+00  3.350000e+00  1.000000e-01
     vertex -4.545000e+00  3.350000e+00  1.000000e-01
     vertex  4.545000e+00  3.350000e+00  4.050000e+00
   endloop
 endfacet
 facet normal  1.000000e+00 -0.000000e+00  0.000000e+00
   outer loop
     vertex  4.545000e+00 -3.350000e+00  4.050000e+00
     vertex  4.545000e+00  3.350000e+00  1.000000e-01
     vertex  4.545000e+00  3.350000e+00  4.050000e+00
   endloop
 endfacet
 facet normal  1.000000e+00  0.000000e+00 -0.000000e+00
   outer loop
     vertex  4.545000e+00 -3.350000e+00  1.000000e-01
     vertex  4.545000e+00  3.350000e+00  1.000000e-01
     vertex  4.545000e+00 -3.350000e+00  4.050000e+00
   endloop
 endfacet
 facet normal  0.000000e+00 -1.000000e+00  0.000000e+00
   outer loop
     vertex -4.545000e+00 -3.350000e+00  4.050000e+00
     vertex  4.545000e+00 -3.350000e+00  1.000000e-01
     vertex  4.545000e+00 -3.350000e+00  4.050000e+00
   endloop
 endfacet
 facet normal  0.000000e+00 -1.000000e+00  0.000000e+00
   outer loop
     vertex -4.545000e+00 -3.350000e+00  1.000000e-01
     vertex  4.545000e+00 -3.350000e+00  1.000000e-01
     vertex -4.545000e+00 -3.350000e+00  4.050000e+00
   endloop
 endfacet
 facet normal -1.000000e+00 -0.000000e+00  0.000000e+00
   outer loop
     vertex -4.545000e+00  3.350000e+00  4.050000e+00
     vertex -4.545000e+00 -3.350000e+00  1.000000e-01
     vertex -4.545000e+00 -3.350000e+00  4.050000e+00
   endloop
 endfacet
 facet normal -1.000000e+00  0.000000e+00  0.000000e+00
   outer loop
     vertex -4.545000e+00  3.350000e+00  1.000000e-01
     vertex -4.545000e+00 -3.350000e+00  1.000000e-01
     vertex -4.545000e+00  3.350000e+00  4.050000e+00
   endloop
 endfacet
 facet normal  0.000000e+00  0.000000e+00 -1.000000e+00
   outer loop
     vertex  4.545000e+00 -3.350000e+00  1.000000e-01
     vertex -4.545000e+00 -3.350000e+00  1.000000e-01
     vertex  4.545000e+00  3.350000e+00  1.000000e-01
   endloop
 endfacet
 facet normal  0.000000e+00  0.000000e+00 -1.000000e+00
   outer loop
     vertex -4.545000e+00 -3.350000e+00  1.000000e-01
     vertex -4.545000e+00  3.350000e+00  1.000000e-01
     vertex  4.545000e+00  3.350000e+00  1.000000e-01
   endloop
 endfacet
 facet normal -0.000000e+00  0.000000e+00  1.000000e+00
   outer loop
     vertex  4.545000e+00  3.350000e+00  4.050000e+00
     vertex -4.545000e+00 -3.350000e+00  4.050000e+00
     vertex  4.545000e+00 -3.350000e+00  4.050000e+00
   endloop
 endfacet
 facet normal  0.000000e+00  0.000000e+00  1.000000e+00
   outer loop
     vertex  4.545000e+00  3.350000e+00  4.050000e+00
     vertex -4.545000e+00  3.350000e+00  4.050000e+00
     vertex -4.545000e+00 -3.350000e+00  4.050000e+00
   endloop
 endfacet
 facet normal -1.000000e+00 -0.000000e+00 -0.000000e+00
   outer loop
     vertex -2.992000e+00 -3.198000e+00  1.000000e-01
     vertex -2.992000e+00 -3.198000e+00  0.000000e+00
     vertex -2.992000e+00 -5.412000e+00  1.000000e-01
   endloop
 endfacet
 facet normal -1.000000e+00  0.000000e+00  0.000000e+00
   outer loop
     vertex -2.992000e+00 -3.198000e+00  0.000000e+00
     vertex -2.992000e+00 -5.412000e+00  0.000000e+00
     vertex -2.992000e+00 -5.412000e+00  1.000000e-01
   endloop
 endfacet
 facet normal  1.000000e+00 -0.000000e+00  0.000000e+00
   outer loop
     vertex -2.088000e+00 -5.412000e+00  1.000000e-01
     vertex -2.088000e+00 -3.198000e+00  0.000000e+00
     vertex -2.088000e+00 -3.198000e+00  1.000000e-01
   endloop
 endfacet
 facet normal  1.000000e+00 -0.000000e+00  0.000000e+00
   outer loop
     vertex -2.088000e+00 -5.412000e+00  1.000000e-01
     vertex -2.088000e+00 -5.412000e+00  0.000000e+00
     vertex -2.088000e+00 -3.198000e+00  0.000000e+00
   endloop
 endfacet
 facet normal  0.000000e+00 -1.000000e+00  0.000000e+00
   outer loop
     vertex -2.992000e+00 -5.412000e+00  0.000000e+00
     vertex -2.088000e+00 -5.412000e+00  0.000000e+00
     vertex -2.088000e+00 -5.412000e+00  1.000000e-01
   endloop
 endfacet
 facet normal  0.000000e+00 -1.000000e+00  0.000000e+00
   outer loop
     vertex -2.992000e+00 -5.412000e+00  1.000000e-01
     vertex -2.992000e+00 -5.412000e+00  0.000000e+00
     vertex -2.088000e+00 -5.412000e+00  1.000000e-01
   endloop
 endfacet
 facet normal  0.000000e+00  1.000000e+00  0.000000e+00
   outer loop
     vertex -2.088000e+00 -3.198000e+00  1.000000e-01
     vertex -2.088000e+00 -3.198000e+00  0.000000e+00
     vertex -2.992000e+00 -3.198000e+00  0.000000e+00
   endloop
 endfacet
 facet normal  0.000000e+00  1.000000e+00 -0.000000e+00
   outer loop
     vertex -2.088000e+00 -3.198000e+00  1.000000e-01
     vertex -2.992000e+00 -3.198000e+00  0.000000e+00
     vertex -2.992000e+00 -3.198000e+00  1.000000e-01
   endloop
 endfacet
 facet normal  0.000000e+00  0.000000e+00 -1.000000e+00
   outer loop
     vertex -2.088000e+00 -5.412000e+00  0.000000e+00
     vertex -2.992000e+00 -5.412000e+00  0.000000e+00
     vertex -2.992000e+00 -3.198000e+00  0.000000e+00
   endloop
 endfacet
 facet normal  0.000000e+00  0.000000e+00 -1.000000e+00
   outer loop
     vertex -2.088000e+00 -5.412000e+00  0.000000e+00
     vertex -2.992000e+00 -3.198000e+00  0.000000e+00
     vertex -2.088000e+00 -3.198000e+00  0.000000e+00
   endloop
 endfacet
 facet normal -0.000000e+00  0.000000e+00  1.000000e+00
   outer loop
     vertex -2.992000e+00 -3.198000e+00  1.000000e-01
     vertex -2.992000e+00 -5.412000e+00  1.000000e-01
     vertex -2.088000e+00 -5.412000e+00  1.000000e-01
   endloop
 endfacet
 facet normal  0.000000e+00  0.000000e+00  1.000000e+00
   outer loop
     vertex -2.088000e+00 -3.198000e+00  1.000000e-01
     vertex -2.992000e+00 -3.198000e+00  1.000000e-01
     vertex -2.088000e+00 -5.412000e+00  1.000000e-01
   endloop
 endfacet
 facet normal -1.000000e+00 -0.000000e+00 -0.000000e+00
   outer loop
     vertex -4.520000e-01 -3.198000e+00  1.000000e-01
     vertex -4.520000e-01 -3.198000e+00  0.000000e+00
     vertex -4.520000e-01 -5.412000e+00  1.000000e-01
   endloop
 endfacet
 facet normal -1.000000e+00  0.000000e+00  0.000000e+00
   outer loop
     vertex -4.520000e-01 -3.198000e+00  0.000000e+00
     vertex -4.520000e-01 -5.412000e+00  0.000000e+00
     vertex -4.520000e-01 -5.412000e+00  1.000000e-01
   endloop
 endfacet
 facet normal  1.000000e+00 -0.000000e+00  0.000000e+00
   outer loop
     vertex  4.520000e-01 -5.412000e+00  1.000000e-01
     vertex  4.520000e-01 -3.198000e+00  0.000000e+00
     vertex  4.520000e-01 -3.198000e+00  1.000000e-01
   endloop
 endfacet
 facet normal  1.000000e+00 -0.000000e+00  0.000000e+00
   outer loop
     vertex  4.520000e-01 -5.412000e+00  1.000000e-01
     vertex  4.520000e-01 -5.412000e+00  0.000000e+00
     vertex  4.520000e-01 -3.198000e+00  0.000000e+00
   endloop
 endfacet
 facet normal  0.000000e+00 -1.000000e+00  0.000000e+00
   outer loop
     vertex -4.520000e-01 -5.412000e+00  0.000000e+00
     vertex  4.520000e-01 -5.412000e+00  0.000000e+00
     vertex  4.520000e-01 -5.412000e+00  1.000000e-01
   endloop
 endfacet
 facet normal  0.000000e+00 -1.000000e+00  0.000000e+00
   outer loop
     vertex -4.520000e-01 -5.412000e+00  1.000000e-01
     vertex -4.520000e-01 -5.412000e+00  0.000000e+00
     vertex  4.520000e-01 -5.412000e+00  1.000000e-01
   endloop
 endfacet
 facet normal  0.000000e+00  1.000000e+00  0.000000e+00
   outer loop
     vertex  4.520000e-01 -3.198000e+00  1.000000e-01
     vertex  4.520000e-01 -3.198000e+00  0.000000e+00
     vertex -4.520000e-01 -3.198000e+00  0.000000e+00
   endloop
 endfacet
 facet normal  0.000000e+00  1.000000e+00 -0.000000e+00
   outer loop
     vertex  4.520000e-01 -3.198000e+00  1.000000e-01
     vertex -4.520000e-01 -3.198000e+00  0.000000e+00
     vertex -4.520000e-01 -3.198000e+00  1.000000e-01
   endloop
 endfacet
 facet normal  0.000000e+00  0.000000e+00 -1.000000e+00
   outer loop
     vertex  4.520000e-01 -5.412000e+00  0.000000e+00
     vertex -4.520000e-01 -5.412000e+00  0.000000e+00
     vertex -4.520000e-01 -3.198000e+00  0.000000e+00
   endloop
 endfacet
 facet normal  0.000000e+00  0.000000e+00 -1.000000e+00
   outer loop
     vertex  4.520000e-01 -5.412000e+00  0.000000e+00
     vertex -4.520000e-01 -3.198000e+00  0.000000e+00
     vertex  4.520000e-01 -3.198000e+00  0.000000e+00
   endloop
 endfacet
 facet normal -0.000000e+00  0.000000e+00  1.000000e+00
   outer loop
     vertex -4.520000e-01 -3.198000e+00  1.000000e-01
     vertex -4.520000e-01 -5.412000e+00  1.000000e-01
     vertex  4.520000e-01 -5.412000e+00  1.000000e-01
   endloop
 endfacet
 facet normal  0.000000e+00  0.000000e+00  1.000000e+00
   outer loop
     vertex  4.520000e-01 -3.198000e+00  1.000000e-01
     vertex -4.520000e-01 -3.198000e+00  1.000000e-01
     vertex  4.520000e-01 -5.412000e+00  1.000000e-01
   endloop
 endfacet
 facet normal -1.000000e+00 -0.000000e+00 -0.000000e+00
   outer loop
     vertex  2.088000e+00 -3.198000e+00  1.000000e-01
     vertex  2.088000e+00 -3.198000e+00  0.000000e+00
     vertex  2.088000e+00 -5.412000e+00  1.000000e-01
   endloop
 endfacet
 facet normal -1.000000e+00  0.000000e+00  0.000000e+00
   outer loop
     vertex  2.088000e+00 -3.198000e+00  0.000000e+00
     vertex  2.088000e+00 -5.412000e+00  0.000000e+00
     vertex  2.088000e+00 -5.412000e+00  1.000000e-01
   endloop
 endfacet
 facet normal  1.000000e+00 -0.000000e+00  0.000000e+00
   outer loop
     vertex  2.992000e+00 -5.412000e+00  1.000000e-01
     vertex  2.992000e+00 -3.198000e+00  0.000000e+00
     vertex  2.992000e+00 -3.198000e+00  1.000000e-01
   endloop
 endfacet
 facet normal  1.000000e+00 -0.000000e+00  0.000000e+00
   outer loop
     vertex  2.992000e+00 -5.412000e+00  1.000000e-01
     vertex  2.992000e+00 -5.412000e+00  0.000000e+00
     vertex  2.992000e+00 -3.198000e+00  0.000000e+00
   endloop
 endfacet
 facet normal  0.000000e+00 -1.000000e+00  0.000000e+00
   outer loop
     vertex  2.088000e+00 -5.412000e+00  0.000000e+00
     vertex  2.992000e+00 -5.412000e+00  0.000000e+00
     vertex  2.992000e+00 -5.412000e+00  1.000000e-01
   endloop
 endfacet
 facet normal  0.000000e+00 -1.000000e+00  0.000000e+00
   outer loop
     vertex  2.088000e+00 -5.412000e+00  1.000000e-01
     vertex  2.088000e+00 -5.412000e+00  0.000000e+00
     vertex  2.992000e+00 -5.412000e+00  1.000000e-01
   endloop
 endfacet
 facet normal  0.000000e+00  1.000000e+00  0.000000e+00
   outer loop
     vertex  2.992000e+00 -3.198000e+00  1.000000e-01
     vertex  2.992000e+00 -3.198000e+00  0.000000e+00
     vertex  2.088000e+00 -3.198000e+00  0.000000e+00
   endloop
 endfacet
 facet normal  0.000000e+00  1.000000e+00 -0.000000e+00
   outer loop
     vertex  2.992000e+00 -3.198000e+00  1.000000e-01
     vertex  2.088000e+00 -3.198000e+00  0.000000e+00
     vertex  2.088000e+00 -3.198000e+00  1.000000e-01
   endloop
 endfacet
 facet normal  0.000000e+00  0.000000e+00 -1.000000e+00
   outer loop
     vertex  2.992000e+00 -5.412000e+00  0.000000e+00
     vertex  2.088000e+00 -5.412000e+00  0.000000e+00
     vertex  2.088000e+00 -3.198000e+00  0.000000e+00
   endloop
 endfacet
 facet normal  0.000000e+00  0.000000e+00 -1.000000e+00
   outer loop
     vertex  2.992000e+00 -5.412000e+00  0.000000e+00
     vertex  2.088000e+00 -3.198000e+00  0.000000e+00
     vertex  2.992000e+00 -3.198000e+00  0.000000e+00
   endloop
 endfacet
 facet normal -0.000000e+00  0.000000e+00  1.000000e+00
   outer loop
     vertex  2.088000e+00 -3.198000e+00  1.000000e-01
     vertex  2.088000e+00 -5.412000e+00  1.000000e-01
     vertex  2.992000e+00 -5.412000e+00  1.000000e-01
   endloop
 endfacet
 facet normal  0.000000e+00  0.000000e+00  1.000000e+00
   outer loop
     vertex  2.992000e+00 -3.198000e+00  1.000000e-01
     vertex  2.088000e+00 -3.198000e+00  1.000000e-01
     vertex  2.992000e+00 -5.412000e+00  1.000000e-01
   endloop
 endfacet
 facet normal -1.000000e+00 -0.000000e+00 -0.000000e+00
   outer loop
     vertex  2.088000e+00  5.412000e+00  1.000000e-01
     vertex  2.088000e+00  5.412000e+00  0.000000e+00
     vertex  2.088000e+00  3.198000e+00  1.000000e-01
   endloop
 endfacet
 facet normal -1.000000e+00  0.000000e+00  0.000000e+00
   outer loop
     vertex  2.088000e+00  5.412000e+00  0.000000e+00
     vertex  2.088000e+00  3.198000e+00  0.000000e+00
     vertex  2.088000e+00  3.198000e+00  1.000000e-01
   endloop
 endfacet
 facet normal  1.000000e+00 -0.000000e+00  0.000000e+00
   outer loop
     vertex  2.992000e+00  3.198000e+00  1.000000e-01
     vertex  2.992000e+00  5.412000e+00  0.000000e+00
     vertex  2.992000e+00  5.412000e+00  1.000000e-01
   endloop
 endfacet
 facet normal  1.000000e+00 -0.000000e+00  0.000000e+00
   outer loop
     vertex  2.992000e+00  3.198000e+00  1.000000e-01
     vertex  2.992000e+00  3.198000e+00  0.000000e+00
     vertex  2.992000e+00  5.412000e+00  0.000000e+00
   endloop
 endfacet
 facet normal  0.000000e+00 -1.000000e+00  0.000000e+00
   outer loop
     vertex  2.088000e+00  3.198000e+00  0.000000e+00
     vertex  2.992000e+00  3.198000e+00  0.000000e+00
     vertex  2.992000e+00  3.198000e+00  1.000000e-01
   endloop
 endfacet
 facet normal  0.000000e+00 -1.000000e+00  0.000000e+00
   outer loop
     vertex  2.088000e+00  3.198000e+00  1.000000e-01
     vertex  2.088000e+00  3.198000e+00  0.000000e+00
     vertex  2.992000e+00  3.198000e+00  1.000000e-01
   endloop
 endfacet
 facet normal  0.000000e+00  1.000000e+00  0.000000e+00
   outer loop
     vertex  2.992000e+00  5.412000e+00  1.000000e-01
     vertex  2.992000e+00  5.412000e+00  0.000000e+00
     vertex  2.088000e+00  5.412000e+00  0.000000e+00
   endloop
 endfacet
 facet normal  0.000000e+00  1.000000e+00 -0.000000e+00
   outer loop
     vertex  2.992000e+00  5.412000e+00  1.000000e-01
     vertex  2.088000e+00  5.412000e+00  0.000000e+00
     vertex  2.088000e+00  5.412000e+00  1.000000e-01
   endloop
 endfacet
 facet normal  0.000000e+00  0.000000e+00 -1.000000e+00
   outer loop
     vertex  2.088000e+00  3.198000e+00  0.000000e+00
     vertex  2.088000e+00  5.412000e+00  0.000000e+00
     vertex  2.992000e+00  5.412000e+00  0.000000e+00
   endloop
 endfacet
 facet normal  0.000000e+00  0.000000e+00 -1.000000e+00
   outer loop
     vertex  2.992000e+00  3.198000e+00  0.000000e+00
     vertex  2.088000e+00  3.198000e+00  0.000000e+00
     vertex  2.992000e+00  5.412000e+00  0.000000e+00
   endloop
 endfacet
 facet normal  0.000000e+00  0.000000e+00  1.000000e+00
   outer loop
     vertex  2.992000e+00  5.412000e+00  1.000000e-01
     vertex  2.088000e+00  5.412000e+00  1.000000e-01
     vertex  2.088000e+00  3.198000e+00  1.000000e-01
   endloop
 endfacet
 facet normal -0.000000e+00  0.000000e+00  1.000000e+00
   outer loop
     vertex  2.992000e+00  5.412000e+00  1.000000e-01
     vertex  2.088000e+00  3.198000e+00  1.000000e-01
     vertex  2.992000e+00  3.198000e+00  1.000000e-01
   endloop
 endfacet
 facet normal -1.000000e+00 -0.000000e+00 -0.000000e+00
   outer loop
     vertex -4.520000e-01  5.412000e+00  1.000000e-01
     vertex -4.520000e-01  5.412000e+00  0.000000e+00
     vertex -4.520000e-01  3.198000e+00  1.000000e-01
   endloop
 endfacet
 facet normal -1.000000e+00  0.000000e+00  0.000000e+00
   outer loop
     vertex -4.520000e-01  5.412000e+00  0.000000e+00
     vertex -4.520000e-01  3.198000e+00  0.000000e+00
     vertex -4.520000e-01  3.198000e+00  1.000000e-01
   endloop
 endfacet
 facet normal  1.000000e+00 -0.000000e+00  0.000000e+00
   outer loop
     vertex  4.520000e-01  3.198000e+00  1.000000e-01
     vertex  4.520000e-01  5.412000e+00  0.000000e+00
     vertex  4.520000e-01  5.412000e+00  1.000000e-01
   endloop
 endfacet
 facet normal  1.000000e+00 -0.000000e+00  0.000000e+00
   outer loop
     vertex  4.520000e-01  3.198000e+00  1.000000e-01
     vertex  4.520000e-01  3.198000e+00  0.000000e+00
     vertex  4.520000e-01  5.412000e+00  0.000000e+00
   endloop
 endfacet
 facet normal  0.000000e+00 -1.000000e+00  0.000000e+00
   outer loop
     vertex -4.520000e-01  3.198000e+00  0.000000e+00
     vertex  4.520000e-01  3.198000e+00  0.000000e+00
     vertex  4.520000e-01  3.198000e+00  1.000000e-01
   endloop
 endfacet
 facet normal  0.000000e+00 -1.000000e+00  0.000000e+00
   outer loop
     vertex -4.520000e-01  3.198000e+00  1.000000e-01
     vertex -4.520000e-01  3.198000e+00  0.000000e+00
     vertex  4.520000e-01  3.198000e+00  1.000000e-01
   endloop
 endfacet
 facet normal  0.000000e+00  1.000000e+00  0.000000e+00
   outer loop
     vertex  4.520000e-01  5.412000e+00  1.000000e-01
     vertex  4.520000e-01  5.412000e+00  0.000000e+00
     vertex -4.520000e-01  5.412000e+00  0.000000e+00
   endloop
 endfacet
 facet normal  0.000000e+00  1.000000e+00 -0.000000e+00
   outer loop
     vertex  4.520000e-01  5.412000e+00  1.000000e-01
     vertex -4.520000e-01  5.412000e+00  0.000000e+00
     vertex -4.520000e-01  5.412000e+00  1.000000e-01
   endloop
 endfacet
 facet normal  0.000000e+00  0.000000e+00 -1.000000e+00
   outer loop
     vertex -4.520000e-01  3.198000e+00  0.000000e+00
     vertex -4.520000e-01  5.412000e+00  0.000000e+00
     vertex  4.520000e-01  5.412000e+00  0.000000e+00
   endloop
 endfacet
 facet normal  0.000000e+00  0.000000e+00 -1.000000e+00
   outer loop
     vertex  4.520000e-01  3.198000e+00  0.000000e+00
     vertex -4.520000e-01  3.198000e+00  0.000000e+00
     vertex  4.520000e-01  5.412000e+00  0.000000e+00
   endloop
 endfacet
 facet normal  0.000000e+00  0.000000e+00  1.000000e+00
   outer loop
     vertex  4.520000e-01  5.412000e+00  1.000000e-01
     vertex -4.520000e-01  5.412000e+00  1.000000e-01
     vertex -4.520000e-01  3.198000e+00  1.000000e-01
   endloop
 endfacet
 facet normal -0.000000e+00  0.000000e+00  1.000000e+00
   outer loop
     vertex  4.520000e-01  5.412000e+00  1.000000e-01
     vertex -4.520000e-01  3.198000e+00  1.000000e-01
     vertex  4.520000e-01  3.198000e+00  1.000000e-01
   endloop
 endfacet
 facet normal -1.000000e+00 -0.000000e+00 -0.000000e+00
   outer loop
     vertex -2.992000e+00  5.412000e+00  1.000000e-01
     vertex -2.992000e+00  5.412000e+00  0.000000e+00
     vertex -2.992000e+00  3.198000e+00  1.000000e-01
   endloop
 endfacet
 facet normal -1.000000e+00  0.000000e+00  0.000000e+00
   outer loop
     vertex -2.992000e+00  5.412000e+00  0.000000e+00
     vertex -2.992000e+00  3.198000e+00  0.000000e+00
     vertex -2.992000e+00  3.198000e+00  1.000000e-01
   endloop
 endfacet
 facet normal  1.000000e+00 -0.000000e+00  0.000000e+00
   outer loop
     vertex -2.088000e+00  3.198000e+00  1.000000e-01
     vertex -2.088000e+00  5.412000e+00  0.000000e+00
     vertex -2.088000e+00  5.412000e+00  1.000000e-01
   endloop
 endfacet
 facet normal  1.000000e+00 -0.000000e+00  0.000000e+00
   outer loop
     vertex -2.088000e+00  3.198000e+00  1.000000e-01
     vertex -2.088000e+00  3.198000e+00  0.000000e+00
     vertex -2.088000e+00  5.412000e+00  0.000000e+00
   endloop
 endfacet
 facet normal  0.000000e+00 -1.000000e+00  0.000000e+00
   outer loop
     vertex -2.992000e+00  3.198000e+00  0.000000e+00
     vertex -2.088000e+00  3.198000e+00  0.000000e+00
     vertex -2.088000e+00  3.198000e+00  1.000000e-01
   endloop
 endfacet
 facet normal  0.000000e+00 -1.000000e+00  0.000000e+00
   outer loop
     vertex -2.992000e+00  3.198000e+00  1.000000e-01
     vertex -2.992000e+00  3.198000e+00  0.000000e+00
     vertex -2.088000e+00  3.198000e+00  1.000000e-01
   endloop
 endfacet
 facet normal  0.000000e+00  1.000000e+00  0.000000e+00
   outer loop
     vertex -2.088000e+00  5.412000e+00  1.000000e-01
     vertex -2.088000e+00  5.412000e+00  0.000000e+00
     vertex -2.992000e+00  5.412000e+00  0.000000e+00
   endloop
 endfacet
 facet normal  0.000000e+00  1.000000e+00 -0.000000e+00
   outer loop
     vertex -2.088000e+00  5.412000e+00  1.000000e-01
     vertex -2.992000e+00  5.412000e+00  0.000000e+00
     vertex -2.992000e+00  5.412000e+00  1.000000e-01
   endloop
 endfacet
 facet normal  0.000000e+00  0.000000e+00 -1.000000e+00
   outer loop
     vertex -2.992000e+00  3.198000e+00  0.000000e+00
     vertex -2.992000e+00  5.412000e+00  0.000000e+00
     vertex -2.088000e+00  5.412000e+00  0.000000e+00
   endloop
 endfacet
 facet normal  0.000000e+00  0.000000e+00 -1.000000e+00
   outer loop
     vertex -2.088000e+00  3.198000e+00  0.000000e+00
     vertex -2.992000e+00  3.198000e+00  0.000000e+00
     vertex -2.088000e+00  5.412000e+00  0.000000e+00
   endloop
 endfacet
 facet normal  0.000000e+00  0.000000e+00  1.000000e+00
   outer loop
     vertex -2.088000e+00  5.412000e+00  1.000000e-01
     vertex -2.992000e+00  5.412000e+00  1.000000e-01
     vertex -2.992000e+00  3.198000e+00  1.000000e-01
   endloop
 endfacet
 facet normal -0.000000e+00  0.000000e+00  1.000000e+00
   outer loop
     vertex -2.088000e+00  5.412000e+00  1.000000e-01
     vertex -2.992000e+00  3.198000e+00  1.000000e-01
     vertex -2.088000e+00  3.198000e+00  1.000000e-01
   endloop
 endfacet
endsolid
