solid
 facet normal  0.000000e+00  1.000000e+00 -0.000000e+00
   outer loop
     vertex  4.150000e+00  4.150000e+00  1.000000e-01
     vertex -4.150000e+00  4.150000e+00  1.000000e-01
     vertex -4.150000e+00  4.150000e+00  1.010000e+01
   endloop
 endfacet
 facet normal  0.000000e+00  1.000000e+00 -0.000000e+00
   outer loop
     vertex  4.150000e+00  4.150000e+00  1.000000e-01
     vertex -4.150000e+00  4.150000e+00  1.010000e+01
     vertex  4.150000e+00  4.150000e+00  1.010000e+01
   endloop
 endfacet
 facet normal  1.000000e+00  0.000000e+00  0.000000e+00
   outer loop
     vertex  4.150000e+00 -4.150000e+00  1.000000e-01
     vertex  4.150000e+00  4.150000e+00  1.000000e-01
     vertex  4.150000e+00  4.150000e+00  1.010000e+01
   endloop
 endfacet
 facet normal  1.000000e+00  0.000000e+00 -0.000000e+00
   outer loop
     vertex  4.150000e+00 -4.150000e+00  1.000000e-01
     vertex  4.150000e+00  4.150000e+00  1.010000e+01
     vertex  4.150000e+00 -4.150000e+00  1.010000e+01
   endloop
 endfacet
 facet normal  0.000000e+00 -1.000000e+00  0.000000e+00
   outer loop
     vertex -4.150000e+00 -4.150000e+00  1.000000e-01
     vertex  4.150000e+00 -4.150000e+00  1.000000e-01
     vertex  4.150000e+00 -4.150000e+00  1.010000e+01
   endloop
 endfacet
 facet normal  0.000000e+00 -1.000000e+00  0.000000e+00
   outer loop
     vertex -4.150000e+00 -4.150000e+00  1.000000e-01
     vertex  4.150000e+00 -4.150000e+00  1.010000e+01
     vertex -4.150000e+00 -4.150000e+00  1.010000e+01
   endloop
 endfacet
 facet normal -1.000000e+00  0.000000e+00  0.000000e+00
   outer loop
     vertex -4.150000e+00  4.150000e+00  1.000000e-01
     vertex -4.150000e+00 -4.150000e+00  1.000000e-01
     vertex -4.150000e+00 -4.150000e+00  1.010000e+01
   endloop
 endfacet
 facet normal -1.000000e+00  0.000000e+00  0.000000e+00
   outer loop
     vertex -4.150000e+00  4.150000e+00  1.000000e-01
     vertex -4.150000e+00 -4.150000e+00  1.010000e+01
     vertex -4.150000e+00  4.150000e+00  1.010000e+01
   endloop
 endfacet
 facet normal  0.000000e+00  0.000000e+00 -1.000000e+00
   outer loop
     vertex -4.150000e+00 -4.150000e+00  1.000000e-01
     vertex -4.150000e+00  4.150000e+00  1.000000e-01
     vertex  4.150000e+00 -4.150000e+00  1.000000e-01
   endloop
 endfacet
 facet normal  0.000000e+00  0.000000e+00 -1.000000e+00
   outer loop
     vertex  4.150000e+00 -4.150000e+00  1.000000e-01
     vertex -4.150000e+00  4.150000e+00  1.000000e-01
     vertex  4.150000e+00  4.150000e+00  1.000000e-01
   endloop
 endfacet
 facet normal  0.000000e+00  0.000000e+00  1.000000e+00
   outer loop
     vertex  4.150000e+00 -4.150000e+00  1.010000e+01
     vertex -4.150000e+00  4.150000e+00  1.010000e+01
     vertex -4.150000e+00 -4.150000e+00  1.010000e+01
   endloop
 endfacet
 facet normal  0.000000e+00  0.000000e+00  1.000000e+00
   outer loop
     vertex  4.150000e+00  4.150000e+00  1.010000e+01
     vertex -4.150000e+00  4.150000e+00  1.010000e+01
     vertex  4.150000e+00 -4.150000e+00  1.010000e+01
   endloop
 endfacet
 facet normal -1.000000e+00 -0.000000e+00 -0.000000e+00
   outer loop
     vertex -5.035000e+00  8.600000e-01  1.000000e-01
     vertex -5.035000e+00  8.600000e-01  0.000000e+00
     vertex -5.035000e+00 -8.600000e-01  1.000000e-01
   endloop
 endfacet
 facet normal -1.000000e+00  0.000000e+00  0.000000e+00
   outer loop
     vertex -5.035000e+00  8.600000e-01  0.000000e+00
     vertex -5.035000e+00 -8.600000e-01  0.000000e+00
     vertex -5.035000e+00 -8.600000e-01  1.000000e-01
   endloop
 endfacet
 facet normal  1.000000e+00 -0.000000e+00  0.000000e+00
   outer loop
     vertex -1.765000e+00 -8.600000e-01  1.000000e-01
     vertex -1.765000e+00  8.600000e-01  0.000000e+00
     vertex -1.765000e+00  8.600000e-01  1.000000e-01
   endloop
 endfacet
 facet normal  1.000000e+00 -0.000000e+00  0.000000e+00
   outer loop
     vertex -1.765000e+00 -8.600000e-01  1.000000e-01
     vertex -1.765000e+00 -8.600000e-01  0.000000e+00
     vertex -1.765000e+00  8.600000e-01  0.000000e+00
   endloop
 endfacet
 facet normal  0.000000e+00 -1.000000e+00  0.000000e+00
   outer loop
     vertex -5.035000e+00 -8.600000e-01  0.000000e+00
     vertex -1.765000e+00 -8.600000e-01  0.000000e+00
     vertex -1.765000e+00 -8.600000e-01  1.000000e-01
   endloop
 endfacet
 facet normal  0.000000e+00 -1.000000e+00  0.000000e+00
   outer loop
     vertex -5.035000e+00 -8.600000e-01  1.000000e-01
     vertex -5.035000e+00 -8.600000e-01  0.000000e+00
     vertex -1.765000e+00 -8.600000e-01  1.000000e-01
   endloop
 endfacet
 facet normal  0.000000e+00  1.000000e+00  0.000000e+00
   outer loop
     vertex -1.765000e+00  8.600000e-01  1.000000e-01
     vertex -1.765000e+00  8.600000e-01  0.000000e+00
     vertex -5.035000e+00  8.600000e-01  0.000000e+00
   endloop
 endfacet
 facet normal  0.000000e+00  1.000000e+00 -0.000000e+00
   outer loop
     vertex -1.765000e+00  8.600000e-01  1.000000e-01
     vertex -5.035000e+00  8.600000e-01  0.000000e+00
     vertex -5.035000e+00  8.600000e-01  1.000000e-01
   endloop
 endfacet
 facet normal  0.000000e+00  0.000000e+00 -1.000000e+00
   outer loop
     vertex -5.035000e+00 -8.600000e-01  0.000000e+00
     vertex -5.035000e+00  8.600000e-01  0.000000e+00
     vertex -1.765000e+00  8.600000e-01  0.000000e+00
   endloop
 endfacet
 facet normal  0.000000e+00  0.000000e+00 -1.000000e+00
   outer loop
     vertex -1.765000e+00 -8.600000e-01  0.000000e+00
     vertex -5.035000e+00 -8.600000e-01  0.000000e+00
     vertex -1.765000e+00  8.600000e-01  0.000000e+00
   endloop
 endfacet
 facet normal  0.000000e+00  0.000000e+00  1.000000e+00
   outer loop
     vertex -1.765000e+00  8.600000e-01  1.000000e-01
     vertex -5.035000e+00  8.600000e-01  1.000000e-01
     vertex -5.035000e+00 -8.600000e-01  1.000000e-01
   endloop
 endfacet
 facet normal -0.000000e+00  0.000000e+00  1.000000e+00
   outer loop
     vertex -1.765000e+00  8.600000e-01  1.000000e-01
     vertex -5.035000e+00 -8.600000e-01  1.000000e-01
     vertex -1.765000e+00 -8.600000e-01  1.000000e-01
   endloop
 endfacet
 facet normal -1.000000e+00 -0.000000e+00 -0.000000e+00
   outer loop
     vertex  1.765000e+00  8.600000e-01  1.000000e-01
     vertex  1.765000e+00  8.600000e-01  0.000000e+00
     vertex  1.765000e+00 -8.600000e-01  1.000000e-01
   endloop
 endfacet
 facet normal -1.000000e+00  0.000000e+00  0.000000e+00
   outer loop
     vertex  1.765000e+00  8.600000e-01  0.000000e+00
     vertex  1.765000e+00 -8.600000e-01  0.000000e+00
     vertex  1.765000e+00 -8.600000e-01  1.000000e-01
   endloop
 endfacet
 facet normal  1.000000e+00 -0.000000e+00  0.000000e+00
   outer loop
     vertex  5.035000e+00 -8.600000e-01  1.000000e-01
     vertex  5.035000e+00  8.600000e-01  0.000000e+00
     vertex  5.035000e+00  8.600000e-01  1.000000e-01
   endloop
 endfacet
 facet normal  1.000000e+00 -0.000000e+00  0.000000e+00
   outer loop
     vertex  5.035000e+00 -8.600000e-01  1.000000e-01
     vertex  5.035000e+00 -8.600000e-01  0.000000e+00
     vertex  5.035000e+00  8.600000e-01  0.000000e+00
   endloop
 endfacet
 facet normal  0.000000e+00 -1.000000e+00  0.000000e+00
   outer loop
     vertex  1.765000e+00 -8.600000e-01  0.000000e+00
     vertex  5.035000e+00 -8.600000e-01  0.000000e+00
     vertex  5.035000e+00 -8.600000e-01  1.000000e-01
   endloop
 endfacet
 facet normal  0.000000e+00 -1.000000e+00  0.000000e+00
   outer loop
     vertex  1.765000e+00 -8.600000e-01  1.000000e-01
     vertex  1.765000e+00 -8.600000e-01  0.000000e+00
     vertex  5.035000e+00 -8.600000e-01  1.000000e-01
   endloop
 endfacet
 facet normal  0.000000e+00  1.000000e+00  0.000000e+00
   outer loop
     vertex  5.035000e+00  8.600000e-01  1.000000e-01
     vertex  5.035000e+00  8.600000e-01  0.000000e+00
     vertex  1.765000e+00  8.600000e-01  0.000000e+00
   endloop
 endfacet
 facet normal  0.000000e+00  1.000000e+00 -0.000000e+00
   outer loop
     vertex  5.035000e+00  8.600000e-01  1.000000e-01
     vertex  1.765000e+00  8.600000e-01  0.000000e+00
     vertex  1.765000e+00  8.600000e-01  1.000000e-01
   endloop
 endfacet
 facet normal  0.000000e+00  0.000000e+00 -1.000000e+00
   outer loop
     vertex  1.765000e+00 -8.600000e-01  0.000000e+00
     vertex  1.765000e+00  8.600000e-01  0.000000e+00
     vertex  5.035000e+00  8.600000e-01  0.000000e+00
   endloop
 endfacet
 facet normal  0.000000e+00  0.000000e+00 -1.000000e+00
   outer loop
     vertex  5.035000e+00 -8.600000e-01  0.000000e+00
     vertex  1.765000e+00 -8.600000e-01  0.000000e+00
     vertex  5.035000e+00  8.600000e-01  0.000000e+00
   endloop
 endfacet
 facet normal  0.000000e+00  0.000000e+00  1.000000e+00
   outer loop
     vertex  5.035000e+00  8.600000e-01  1.000000e-01
     vertex  1.765000e+00  8.600000e-01  1.000000e-01
     vertex  1.765000e+00 -8.600000e-01  1.000000e-01
   endloop
 endfacet
 facet normal -0.000000e+00  0.000000e+00  1.000000e+00
   outer loop
     vertex  5.035000e+00  8.600000e-01  1.000000e-01
     vertex  1.765000e+00 -8.600000e-01  1.000000e-01
     vertex  5.035000e+00 -8.600000e-01  1.000000e-01
   endloop
 endfacet
endsolid
